<?xml version="1.0" encoding="UTF-8" standalone="no"?>
<svg width="459.669mm" height="352.778mm"
 viewBox="0 0 1303 1000"
 xmlns="http://www.w3.org/2000/svg" xmlns:xlink="http://www.w3.org/1999/xlink"  version="1.2" baseProfile="tiny">
<title>Qt SVG Document</title>
<desc>Generated with Qt</desc>
<defs>
</defs>
<g fill="none" stroke="black" stroke-width="1" fill-rule="evenodd" stroke-linecap="square" stroke-linejoin="bevel" >

<g fill="#ffffff" fill-opacity="1" stroke="none" transform="matrix(1,0,0,1,0,0)"
font-family="Helvetica" font-size="12" font-weight="400" font-style="normal" 
>
<rect x="0" y="0" width="1303" height="1000"/>
</g>

<g fill="none" stroke="#000000" stroke-opacity="1" stroke-width="1" stroke-linecap="square" stroke-linejoin="bevel" transform="matrix(1,0,0,1,0,0)"
font-family="Helvetica" font-size="12" font-weight="400" font-style="normal" 
>
</g>

<g fill="none" stroke="#000000" stroke-opacity="1" stroke-width="1" stroke-linecap="square" stroke-linejoin="bevel" transform="matrix(1,0,0,1,0,0)"
font-family="Helvetica" font-size="12" font-weight="400" font-style="normal" 
>
</g>

<g fill="none" stroke="#000000" stroke-opacity="1" stroke-width="1" stroke-linecap="square" stroke-linejoin="bevel" transform="matrix(4.13768,0,0,4.13768,-24.7492,-31.9017)"
font-family="Helvetica" font-size="12" font-weight="400" font-style="normal" 
>
</g>

<g fill="none" stroke="#000000" stroke-opacity="0.705882" stroke-width="1.5" stroke-linecap="round" stroke-linejoin="bevel" transform="matrix(4.13768,0,0,4.13768,-24.7492,-31.9017)"
font-family="Helvetica" font-size="12" font-weight="400" font-style="normal" 
>
<path vector-effect="none" fill-rule="evenodd" d="M96.3943,25 C93.8066,24.8517 93.791,24.9273 91.2148,25.2127 "/>
</g>

<g fill="none" stroke="#000000" stroke-opacity="1" stroke-width="1" stroke-linecap="square" stroke-linejoin="bevel" transform="matrix(4.13768,0,0,4.13768,-24.7492,-31.9017)"
font-family="Helvetica" font-size="12" font-weight="400" font-style="normal" 
>
</g>

<g fill="none" stroke="#000000" stroke-opacity="1" stroke-width="1" stroke-linecap="square" stroke-linejoin="bevel" transform="matrix(4.13768,0,0,4.13768,-24.7492,-31.9017)"
font-family="Helvetica" font-size="12" font-weight="400" font-style="normal" 
>
</g>

<g fill="none" stroke="#000000" stroke-opacity="0.705882" stroke-width="1.5" stroke-linecap="round" stroke-linejoin="bevel" transform="matrix(4.13768,0,0,4.13768,-24.7492,-31.9017)"
font-family="Helvetica" font-size="12" font-weight="400" font-style="normal" 
>
<path vector-effect="none" fill-rule="evenodd" d="M25,175.988 C20.0001,176.013 19.9748,171.013 31.1139,170.957 C42.253,170.901 42.2782,175.901 37.2783,175.926 "/>
</g>

<g fill="none" stroke="#000000" stroke-opacity="1" stroke-width="1" stroke-linecap="square" stroke-linejoin="bevel" transform="matrix(4.13768,0,0,4.13768,-24.7492,-31.9017)"
font-family="Helvetica" font-size="12" font-weight="400" font-style="normal" 
>
</g>

<g fill="none" stroke="#000000" stroke-opacity="1" stroke-width="1" stroke-linecap="square" stroke-linejoin="bevel" transform="matrix(4.13768,0,0,4.13768,-24.7492,-31.9017)"
font-family="Helvetica" font-size="12" font-weight="400" font-style="normal" 
>
</g>

<g fill="none" stroke="#000000" stroke-opacity="0.705882" stroke-width="1.5" stroke-linecap="round" stroke-linejoin="bevel" transform="matrix(4.13768,0,0,4.13768,-24.7492,-31.9017)"
font-family="Helvetica" font-size="12" font-weight="400" font-style="normal" 
>
<path vector-effect="none" fill-rule="evenodd" d="M147.467,175.972 C142.467,175.997 142.441,170.997 150.319,170.957 C158.197,170.917 158.222,175.917 153.222,175.943 "/>
</g>

<g fill="none" stroke="#000000" stroke-opacity="1" stroke-width="1" stroke-linecap="square" stroke-linejoin="bevel" transform="matrix(4.13768,0,0,4.13768,-24.7492,-31.9017)"
font-family="Helvetica" font-size="12" font-weight="400" font-style="normal" 
>
</g>

<g fill="none" stroke="#000000" stroke-opacity="1" stroke-width="1" stroke-linecap="square" stroke-linejoin="bevel" transform="matrix(4.13768,0,0,4.13768,-24.7492,-31.9017)"
font-family="Helvetica" font-size="12" font-weight="400" font-style="normal" 
>
</g>

<g fill="none" stroke="#000000" stroke-opacity="0.705882" stroke-width="1.5" stroke-linecap="round" stroke-linejoin="bevel" transform="matrix(4.13768,0,0,4.13768,-24.7492,-31.9017)"
font-family="Helvetica" font-size="12" font-weight="400" font-style="normal" 
>
<path vector-effect="none" fill-rule="evenodd" d="M203.222,175.97 C198.223,175.995 198.197,170.995 205.697,170.957 C213.197,170.919 213.222,175.919 208.222,175.944 "/>
</g>

<g fill="none" stroke="#000000" stroke-opacity="1" stroke-width="1" stroke-linecap="square" stroke-linejoin="bevel" transform="matrix(4.13768,0,0,4.13768,-24.7492,-31.9017)"
font-family="Helvetica" font-size="12" font-weight="400" font-style="normal" 
>
</g>

<g fill="none" stroke="#000000" stroke-opacity="1" stroke-width="1" stroke-linecap="square" stroke-linejoin="bevel" transform="matrix(4.13768,0,0,4.13768,-24.7492,-31.9017)"
font-family="Helvetica" font-size="12" font-weight="400" font-style="normal" 
>
</g>

<g fill="none" stroke="#000000" stroke-opacity="0.705882" stroke-width="1.5" stroke-linecap="round" stroke-linejoin="bevel" transform="matrix(4.13768,0,0,4.13768,-24.7492,-31.9017)"
font-family="Helvetica" font-size="12" font-weight="400" font-style="normal" 
>
<path vector-effect="none" fill-rule="evenodd" d="M258.222,175.97 C253.222,175.995 253.197,170.995 260.697,170.957 C268.197,170.919 268.222,175.919 263.222,175.944 "/>
</g>

<g fill="none" stroke="#000000" stroke-opacity="1" stroke-width="1" stroke-linecap="square" stroke-linejoin="bevel" transform="matrix(4.13768,0,0,4.13768,-24.7492,-31.9017)"
font-family="Helvetica" font-size="12" font-weight="400" font-style="normal" 
>
</g>

<g fill="none" stroke="#000000" stroke-opacity="1" stroke-width="1" stroke-linecap="square" stroke-linejoin="bevel" transform="matrix(4.13768,0,0,4.13768,-24.7492,-31.9017)"
font-family="Helvetica" font-size="12" font-weight="400" font-style="normal" 
>
</g>

<g fill="none" stroke="#000000" stroke-opacity="0.705882" stroke-width="1.5" stroke-linecap="round" stroke-linejoin="bevel" transform="matrix(4.13768,0,0,4.13768,-24.7492,-31.9017)"
font-family="Helvetica" font-size="12" font-weight="400" font-style="normal" 
>
<path vector-effect="none" fill-rule="evenodd" d="M25,226.013 C20.0001,226.038 19.9748,221.039 27.4747,221.001 C34.9747,220.963 34.9999,225.963 29.9999,225.988 "/>
</g>

<g fill="none" stroke="#000000" stroke-opacity="1" stroke-width="1" stroke-linecap="square" stroke-linejoin="bevel" transform="matrix(4.13768,0,0,4.13768,-24.7492,-31.9017)"
font-family="Helvetica" font-size="12" font-weight="400" font-style="normal" 
>
</g>

<g fill="none" stroke="#000000" stroke-opacity="1" stroke-width="1" stroke-linecap="square" stroke-linejoin="bevel" transform="matrix(4.13768,0,0,4.13768,-24.7492,-31.9017)"
font-family="Helvetica" font-size="12" font-weight="400" font-style="normal" 
>
</g>

<g fill="none" stroke="#000000" stroke-opacity="0.705882" stroke-width="1.5" stroke-linecap="round" stroke-linejoin="bevel" transform="matrix(4.13768,0,0,4.13768,-24.7492,-31.9017)"
font-family="Helvetica" font-size="12" font-weight="400" font-style="normal" 
>
<path vector-effect="none" fill-rule="evenodd" d="M87.2783,175.983 C82.2783,176.008 82.2531,171.008 92.3472,170.957 C102.441,170.906 102.466,175.906 97.4666,175.931 "/>
</g>

<g fill="none" stroke="#000000" stroke-opacity="1" stroke-width="1" stroke-linecap="square" stroke-linejoin="bevel" transform="matrix(4.13768,0,0,4.13768,-24.7492,-31.9017)"
font-family="Helvetica" font-size="12" font-weight="400" font-style="normal" 
>
</g>

<g fill="none" stroke="#000000" stroke-opacity="1" stroke-width="1" stroke-linecap="square" stroke-linejoin="bevel" transform="matrix(4.13768,0,0,4.13768,-24.7492,-31.9017)"
font-family="Helvetica" font-size="12" font-weight="400" font-style="normal" 
>
</g>

<g fill="#626ccb" fill-opacity="1" stroke="none" transform="matrix(4.13768,0,0,4.13768,-24.7492,-31.9017)"
font-family="Helvetica" font-size="12" font-weight="400" font-style="normal" 
>
<path vector-effect="none" fill-rule="nonzero" d="M91.4878,27.6775 L71.7542,29.863 L71.4812,27.3982 L72.2925,29.7416 L53.8101,36.1403 L52.9988,33.7968 L54.4577,35.8022 L38.8044,47.1902 L37.3454,45.1849 L39.4437,46.5067 L29.2364,62.7102 L27.1382,61.3885 L29.6024,61.6668 L27.4642,80.5978 L25,80.3195 L27.3336,79.4803 L33.7992,97.4587 L31.4656,98.2979 L33.2844,96.6122 L46.3884,110.751 L44.5695,112.436 L45.7436,110.252 L62.9093,119.479 L61.7352,121.663 L62.2729,119.242 L81.4694,123.505 L80.9317,125.926 L80.8708,123.447 L100.62,122.962 L100.681,125.441 L100.046,123.043 L119.128,117.992 L119.763,120.389 L118.56,118.22 L135.714,108.705 L136.917,110.873 L135.152,109.131 L148.793,95.3127 L150.558,97.0548 L148.302,96.0232 L156.288,78.5663 L158.543,79.5979 L156.063,79.5978 L156.064,60.5562 L158.543,60.5562 L156.339,61.6925 L147.619,44.7767 L149.824,43.6404 L148.316,45.6091 L133.092,33.9477 L134.6,31.979 L133.852,34.3433 L115.368,28.4942 L116.116,26.1299 L115.974,28.6057 L96.2524,27.4758 L96.5361,22.5242 L116.258,23.6541 C116.469,23.666 116.672,23.7041 116.865,23.7651 L116.864,23.7656 L135.348,29.6147 C135.626,29.7021 135.882,29.8372 136.108,30.0102 L136.108,30.0103 L151.332,41.6717 C151.621,41.8934 151.86,42.1775 152.028,42.5036 L152.028,42.5041 L160.748,59.4199 C160.924,59.76 161.023,60.1465 161.023,60.5562 C161.023,60.5562 161.023,60.5562 161.023,60.5562 L161.023,60.5562 L161.023,79.5979 C161.023,79.9663 160.943,80.3159 160.799,80.63 L160.798,80.6295 L152.813,98.0865 C152.692,98.3522 152.525,98.5921 152.322,98.797 L152.322,98.797 L138.682,112.616 C138.517,112.783 138.328,112.927 138.121,113.042 L138.12,113.042 L120.965,122.557 C120.789,122.656 120.598,122.734 120.398,122.786 L120.397,122.786 L101.316,127.838 C101.132,127.887 100.94,127.915 100.742,127.92 L100.742,127.92 L80.9927,128.405 C80.9724,128.406 80.9521,128.406 80.9317,128.406 C80.7467,128.406 80.5664,128.386 80.3936,128.347 L80.3941,128.347 L61.1976,124.084 C60.9715,124.034 60.758,123.954 60.5608,123.848 L60.5612,123.847 L43.3955,114.621 C43.1533,114.491 42.9358,114.322 42.7507,114.122 L42.7507,114.122 L29.6468,99.9836 C29.4223,99.7416 29.2456,99.4546 29.1317,99.1381 L29.132,99.1371 L22.6664,81.1587 C22.5715,80.897 22.5201,80.6143 22.5201,80.3195 C22.5201,80.225 22.5254,80.1318 22.5356,80.0409 L22.5358,80.0412 L24.6739,61.1101 C24.7164,60.7289 24.845,60.3747 25.0397,60.0664 L25.0399,60.0667 L35.2472,43.8631 C35.4151,43.5965 35.6325,43.3644 35.8864,43.1794 L35.8865,43.1795 L51.5398,31.7915 C51.7357,31.6486 51.9534,31.5338 52.1864,31.4531 L52.1875,31.4534 L70.6699,25.0548 C70.8411,24.9948 71.0214,24.9536 71.2073,24.9333 L71.2082,24.9334 L90.9418,22.7478 L91.4878,27.6775"/>
</g>

<g fill="none" stroke="#000000" stroke-opacity="1" stroke-width="0.3" stroke-linecap="square" stroke-linejoin="round" transform="matrix(4.13768,0,0,4.13768,-24.7492,-31.9017)"
font-family="Helvetica" font-size="12" font-weight="400" font-style="normal" 
>
<path vector-effect="none" fill-rule="evenodd" d="M91.4878,27.6775 L72.0302,29.8324 L54.159,36.0195 L39.1897,46.9099 L29.5387,62.2304 L27.529,80.0238 L33.6281,96.9829 L46.1075,110.448 L62.6074,119.316 L81.1736,123.439 L100.328,122.969 L118.83,118.071 L135.403,108.878 L148.485,95.6247 L156.063,79.0576 L156.064,61.1577 L147.874,45.2709 L133.437,34.2121 L115.664,28.588 L96.2524,27.4758 L96.5361,22.5242 L116.258,23.6541 L116.568,23.6912 L116.865,23.7651 L116.864,23.7656 L135.348,29.6147 L135.748,29.7804 L136.108,30.0102 L136.108,30.0103 L151.332,41.6717 L151.725,42.0485 L152.028,42.5036 L152.028,42.5041 L160.748,59.4199 L160.952,59.962 L161.023,60.5562 L161.023,60.5562 L161.023,79.5979 L160.965,80.1343 L160.799,80.63 L160.798,80.6295 L152.813,98.0865 L152.598,98.4645 L152.322,98.797 L152.322,98.797 L138.682,112.616 L138.417,112.849 L138.121,113.042 L138.12,113.042 L120.965,122.557 L120.691,122.689 L120.398,122.786 L120.397,122.786 L101.316,127.838 L101.034,127.896 L100.742,127.92 L100.742,127.92 L80.9927,128.405 L80.9622,128.406 L80.9317,128.406 L80.658,128.391 L80.3936,128.347 L80.3941,128.347 L61.1976,124.084 L60.8684,123.987 L60.5608,123.848 L60.5612,123.847 L43.3955,114.621 L43.0517,114.398 L42.7507,114.122 L42.7507,114.122 L29.6468,99.9836 L29.3478,99.5888 L29.1317,99.1381 L29.132,99.1371 L22.6664,81.1587 L22.5577,80.7515 L22.5201,80.3195 L22.524,80.1789 L22.5356,80.0409 L22.5358,80.0412 L24.6739,61.1101 L24.7998,60.5609 L25.0397,60.0664 L25.0399,60.0667 L35.2472,43.8631 L35.5346,43.4907 L35.8864,43.1794 L35.8865,43.1795 L51.5398,31.7915 L51.8492,31.599 L52.1864,31.4531 L52.1875,31.4534 L70.6699,25.0548 L70.9331,24.9792 L71.2073,24.9333 L71.2082,24.9334 L90.9418,22.7478 L91.4878,27.6775"/>
</g>

<g fill="none" stroke="#000000" stroke-opacity="1" stroke-width="1" stroke-linecap="square" stroke-linejoin="bevel" transform="matrix(4.13768,0,0,4.13768,-24.7492,-31.9017)"
font-family="Helvetica" font-size="12" font-weight="400" font-style="normal" 
>
</g>

<g fill="none" stroke="#000000" stroke-opacity="1" stroke-width="1" stroke-linecap="square" stroke-linejoin="bevel" transform="matrix(4.13768,0,0,4.13768,-24.7492,-31.9017)"
font-family="Helvetica" font-size="12" font-weight="400" font-style="normal" 
>
</g>

<g fill="#8fcb62" fill-opacity="1" stroke="none" transform="matrix(4.13768,0,0,4.13768,-24.7492,-31.9017)"
font-family="Helvetica" font-size="12" font-weight="400" font-style="normal" 
>
<path vector-effect="none" fill-rule="nonzero" d="M305.855,78.6764 L286.699,77.7708 L286.81,75.4153 L286.74,77.7724 L267.126,77.1856 L267.197,74.8285 L267.17,77.1865 L247.311,76.9632 L247.338,74.6052 L247.355,76.9633 L227.733,77.1062 L227.716,74.748 L227.773,77.1055 L208.601,77.5698 L208.486,72.8548 L227.659,72.3905 C227.672,72.3902 227.685,72.39 227.699,72.3899 L227.699,72.3899 L247.321,72.2471 C247.326,72.247 247.332,72.247 247.338,72.247 C248.64,72.247 249.696,73.3028 249.696,74.6052 C249.696,75.9076 248.64,76.9634 247.338,76.9634 C246.035,76.9634 244.98,75.9076 244.98,74.6052 C244.98,73.3231 246.003,72.28 247.277,72.2478 L247.364,72.2471 L267.223,72.4704 C267.238,72.4706 267.253,72.4709 267.267,72.4713 L267.267,72.4713 L286.881,73.0581 C286.895,73.0585 286.908,73.059 286.922,73.0597 L286.922,73.0597 L306.078,73.9653 L305.855,78.6764"/>
</g>

<g fill="none" stroke="#000000" stroke-opacity="1" stroke-width="0.3" stroke-linecap="square" stroke-linejoin="round" transform="matrix(4.13768,0,0,4.13768,-24.7492,-31.9017)"
font-family="Helvetica" font-size="12" font-weight="400" font-style="normal" 
>
<path vector-effect="none" fill-rule="evenodd" d="M305.855,78.6764 L286.719,77.7718 L267.148,77.1863 L247.333,76.9635 L227.753,77.106 L208.601,77.5698 L208.486,72.8548 L227.659,72.3905 L227.679,72.3901 L227.699,72.3899 L227.699,72.3899 L247.321,72.2471 L247.329,72.247 L247.338,72.247 L247.339,72.2473 L247.364,72.2471 L267.223,72.4704 L267.245,72.4708 L267.267,72.4713 L267.267,72.4713 L286.881,73.0581 L286.901,73.0588 L286.922,73.0597 L286.922,73.0597 L306.078,73.9653 L305.855,78.6764"/>
</g>

<g fill="none" stroke="#000000" stroke-opacity="1" stroke-width="1" stroke-linecap="square" stroke-linejoin="bevel" transform="matrix(4.13768,0,0,4.13768,-24.7492,-31.9017)"
font-family="Helvetica" font-size="12" font-weight="400" font-style="normal" 
>
</g>

<g fill="none" stroke="#000000" stroke-opacity="1" stroke-width="1" stroke-linecap="square" stroke-linejoin="bevel" transform="matrix(4.13768,0,0,4.13768,-24.7492,-31.9017)"
font-family="Helvetica" font-size="12" font-weight="400" font-style="normal" 
>
</g>

<g fill="#bbcb62" fill-opacity="1" stroke="none" transform="matrix(4.13768,0,0,4.13768,-24.7492,-31.9017)"
font-family="Helvetica" font-size="12" font-weight="400" font-style="normal" 
>
<path vector-effect="none" fill-rule="nonzero" d="M37.2927,178.791 L25.0145,178.853 L24.9855,173.123 L37.2638,173.061 L37.2927,178.791"/>
</g>

<g fill="none" stroke="#000000" stroke-opacity="1" stroke-width="0.3" stroke-linecap="square" stroke-linejoin="round" transform="matrix(4.13768,0,0,4.13768,-24.7492,-31.9017)"
font-family="Helvetica" font-size="12" font-weight="400" font-style="normal" 
>
<path vector-effect="none" fill-rule="evenodd" d="M37.2927,178.791 L25.0145,178.853 L24.9855,173.123 L37.2638,173.061 L37.2927,178.791"/>
</g>

<g fill="none" stroke="#000000" stroke-opacity="1" stroke-width="1" stroke-linecap="square" stroke-linejoin="bevel" transform="matrix(4.13768,0,0,4.13768,-24.7492,-31.9017)"
font-family="Helvetica" font-size="12" font-weight="400" font-style="normal" 
>
</g>

<g fill="none" stroke="#000000" stroke-opacity="1" stroke-width="1" stroke-linecap="square" stroke-linejoin="bevel" transform="matrix(4.13768,0,0,4.13768,-24.7492,-31.9017)"
font-family="Helvetica" font-size="12" font-weight="400" font-style="normal" 
>
</g>

<g fill="#a862cb" fill-opacity="1" stroke="none" transform="matrix(4.13768,0,0,4.13768,-24.7492,-31.9017)"
font-family="Helvetica" font-size="12" font-weight="400" font-style="normal" 
>
<path vector-effect="none" fill-rule="nonzero" d="M97.4814,178.872 L87.2931,178.923 L87.2634,173.042 L97.4517,172.991 L97.4814,178.872"/>
</g>

<g fill="none" stroke="#000000" stroke-opacity="1" stroke-width="0.3" stroke-linecap="square" stroke-linejoin="round" transform="matrix(4.13768,0,0,4.13768,-24.7492,-31.9017)"
font-family="Helvetica" font-size="12" font-weight="400" font-style="normal" 
>
<path vector-effect="none" fill-rule="evenodd" d="M97.4814,178.872 L87.2931,178.923 L87.2634,173.042 L97.4517,172.991 L97.4814,178.872"/>
</g>

<g fill="none" stroke="#000000" stroke-opacity="1" stroke-width="1" stroke-linecap="square" stroke-linejoin="bevel" transform="matrix(4.13768,0,0,4.13768,-24.7492,-31.9017)"
font-family="Helvetica" font-size="12" font-weight="400" font-style="normal" 
>
</g>

<g fill="none" stroke="#000000" stroke-opacity="1" stroke-width="1" stroke-linecap="square" stroke-linejoin="bevel" transform="matrix(4.13768,0,0,4.13768,-24.7492,-31.9017)"
font-family="Helvetica" font-size="12" font-weight="400" font-style="normal" 
>
</g>

<g fill="#a8cb62" fill-opacity="1" stroke="none" transform="matrix(4.13768,0,0,4.13768,-24.7492,-31.9017)"
font-family="Helvetica" font-size="12" font-weight="400" font-style="normal" 
>
<path vector-effect="none" fill-rule="nonzero" d="M153.236,178.695 L147.48,178.724 L147.453,173.22 L153.209,173.191 L153.236,178.695"/>
</g>

<g fill="none" stroke="#000000" stroke-opacity="1" stroke-width="0.3" stroke-linecap="square" stroke-linejoin="round" transform="matrix(4.13768,0,0,4.13768,-24.7492,-31.9017)"
font-family="Helvetica" font-size="12" font-weight="400" font-style="normal" 
>
<path vector-effect="none" fill-rule="evenodd" d="M153.236,178.695 L147.48,178.724 L147.453,173.22 L153.209,173.191 L153.236,178.695"/>
</g>

<g fill="none" stroke="#000000" stroke-opacity="1" stroke-width="1" stroke-linecap="square" stroke-linejoin="bevel" transform="matrix(4.13768,0,0,4.13768,-24.7492,-31.9017)"
font-family="Helvetica" font-size="12" font-weight="400" font-style="normal" 
>
</g>

<g fill="none" stroke="#000000" stroke-opacity="1" stroke-width="1" stroke-linecap="square" stroke-linejoin="bevel" transform="matrix(4.13768,0,0,4.13768,-24.7492,-31.9017)"
font-family="Helvetica" font-size="12" font-weight="400" font-style="normal" 
>
</g>

<g fill="#62cbad" fill-opacity="1" stroke="none" transform="matrix(4.13768,0,0,4.13768,-24.7492,-31.9017)"
font-family="Helvetica" font-size="12" font-weight="400" font-style="normal" 
>
<path vector-effect="none" fill-rule="nonzero" d="M208.234,178.317 L203.234,178.342 L203.211,173.597 L208.21,173.572 L208.234,178.317"/>
</g>

<g fill="none" stroke="#000000" stroke-opacity="1" stroke-width="0.3" stroke-linecap="square" stroke-linejoin="round" transform="matrix(4.13768,0,0,4.13768,-24.7492,-31.9017)"
font-family="Helvetica" font-size="12" font-weight="400" font-style="normal" 
>
<path vector-effect="none" fill-rule="evenodd" d="M208.234,178.317 L203.234,178.342 L203.211,173.597 L208.21,173.572 L208.234,178.317"/>
</g>

<g fill="none" stroke="#000000" stroke-opacity="1" stroke-width="1" stroke-linecap="square" stroke-linejoin="bevel" transform="matrix(4.13768,0,0,4.13768,-24.7492,-31.9017)"
font-family="Helvetica" font-size="12" font-weight="400" font-style="normal" 
>
</g>

<g fill="none" stroke="#000000" stroke-opacity="1" stroke-width="1" stroke-linecap="square" stroke-linejoin="bevel" transform="matrix(4.13768,0,0,4.13768,-24.7492,-31.9017)"
font-family="Helvetica" font-size="12" font-weight="400" font-style="normal" 
>
</g>

<g fill="#6285cb" fill-opacity="1" stroke="none" transform="matrix(4.13768,0,0,4.13768,-24.7492,-31.9017)"
font-family="Helvetica" font-size="12" font-weight="400" font-style="normal" 
>
<path vector-effect="none" fill-rule="nonzero" d="M263.251,181.642 L258.251,181.668 L258.194,170.272 L263.194,170.247 L263.251,181.642"/>
</g>

<g fill="none" stroke="#000000" stroke-opacity="1" stroke-width="0.3" stroke-linecap="square" stroke-linejoin="round" transform="matrix(4.13768,0,0,4.13768,-24.7492,-31.9017)"
font-family="Helvetica" font-size="12" font-weight="400" font-style="normal" 
>
<path vector-effect="none" fill-rule="evenodd" d="M263.251,181.642 L258.251,181.668 L258.194,170.272 L263.194,170.247 L263.251,181.642"/>
</g>

<g fill="none" stroke="#000000" stroke-opacity="1" stroke-width="1" stroke-linecap="square" stroke-linejoin="bevel" transform="matrix(4.13768,0,0,4.13768,-24.7492,-31.9017)"
font-family="Helvetica" font-size="12" font-weight="400" font-style="normal" 
>
</g>

<g fill="none" stroke="#000000" stroke-opacity="1" stroke-width="1" stroke-linecap="square" stroke-linejoin="bevel" transform="matrix(4.13768,0,0,4.13768,-24.7492,-31.9017)"
font-family="Helvetica" font-size="12" font-weight="400" font-style="normal" 
>
</g>

<g fill="#62a1cb" fill-opacity="1" stroke="none" transform="matrix(4.13768,0,0,4.13768,-24.7492,-31.9017)"
font-family="Helvetica" font-size="12" font-weight="400" font-style="normal" 
>
<path vector-effect="none" fill-rule="nonzero" d="M30.0425,234.416 L25.0425,234.441 L24.9575,217.585 L29.9574,217.56 L30.0425,234.416"/>
</g>

<g fill="none" stroke="#000000" stroke-opacity="1" stroke-width="0.3" stroke-linecap="square" stroke-linejoin="round" transform="matrix(4.13768,0,0,4.13768,-24.7492,-31.9017)"
font-family="Helvetica" font-size="12" font-weight="400" font-style="normal" 
>
<path vector-effect="none" fill-rule="evenodd" d="M30.0425,234.416 L25.0425,234.441 L24.9575,217.585 L29.9574,217.56 L30.0425,234.416"/>
</g>

<g fill="none" stroke="#000000" stroke-opacity="1" stroke-width="1" stroke-linecap="square" stroke-linejoin="bevel" transform="matrix(4.13768,0,0,4.13768,-24.7492,-31.9017)"
font-family="Helvetica" font-size="12" font-weight="400" font-style="normal" 
>
</g>

<g fill="none" stroke="#000000" stroke-opacity="1" stroke-width="1" stroke-linecap="square" stroke-linejoin="bevel" transform="matrix(4.13768,0,0,4.13768,-24.7492,-31.9017)"
font-family="Helvetica" font-size="12" font-weight="400" font-style="normal" 
>
</g>

<g fill="#6281cb" fill-opacity="1" stroke="none" transform="matrix(4.13768,0,0,4.13768,-24.7492,-31.9017)"
font-family="Helvetica" font-size="12" font-weight="400" font-style="normal" 
>
<path vector-effect="none" fill-rule="nonzero" d="M85.0106,228.118 L80.0107,228.143 L79.9892,223.883 L84.9891,223.858 L85.0106,228.118"/>
</g>

<g fill="none" stroke="#000000" stroke-opacity="1" stroke-width="0.3" stroke-linecap="square" stroke-linejoin="round" transform="matrix(4.13768,0,0,4.13768,-24.7492,-31.9017)"
font-family="Helvetica" font-size="12" font-weight="400" font-style="normal" 
>
<path vector-effect="none" fill-rule="evenodd" d="M85.0106,228.118 L80.0107,228.143 L79.9892,223.883 L84.9891,223.858 L85.0106,228.118"/>
</g>

<g fill="none" stroke="#000000" stroke-opacity="1" stroke-width="1" stroke-linecap="square" stroke-linejoin="bevel" transform="matrix(4.13768,0,0,4.13768,-24.7492,-31.9017)"
font-family="Helvetica" font-size="12" font-weight="400" font-style="normal" 
>
</g>

<g fill="none" stroke="#000000" stroke-opacity="1" stroke-width="1" stroke-linecap="square" stroke-linejoin="bevel" transform="matrix(1,0,0,1,0,0)"
font-family="Helvetica" font-size="12" font-weight="400" font-style="normal" 
>
</g>
</g>
</svg>
